<?xml version="1.0" encoding="UTF-8"?>
<!DOCTYPE svg PUBLIC "-//W3C//DTD SVG 1.1//EN" "http://www.w3.org/Graphics/SVG/1.1/DTD/svg11.dtd">
<!-- Creator: CorelDRAW 2021 (64-Bit) -->
<svg xmlns="http://www.w3.org/2000/svg" xml:space="preserve" width="99.3026mm" height="50.4292mm" version="1.1" style="shape-rendering:geometricPrecision; text-rendering:geometricPrecision; image-rendering:optimizeQuality; fill-rule:evenodd; clip-rule:evenodd"
viewBox="0 0 1640.98 833.34"
 xmlns:xlink="http://www.w3.org/1999/xlink"
 xmlns:xodm="http://www.corel.com/coreldraw/odm/2003">
 <defs>
  <style type="text/css">
   <![CDATA[
    .fil8 {fill:black;fill-rule:nonzero}
    .fil0 {fill:#339966;fill-rule:nonzero}
    .fil10 {fill:#39476B;fill-rule:nonzero}
    .fil3 {fill:#40507F;fill-rule:nonzero}
    .fil14 {fill:#663333;fill-rule:nonzero}
    .fil2 {fill:#6876AA;fill-rule:nonzero}
    .fil7 {fill:#68B6D8;fill-rule:nonzero}
    .fil12 {fill:#7C576C;fill-rule:nonzero}
    .fil4 {fill:#92B4EA;fill-rule:nonzero}
    .fil15 {fill:#AA8888;fill-rule:nonzero}
    .fil13 {fill:#B79A9A;fill-rule:nonzero}
    .fil1 {fill:#DDD0D0;fill-rule:nonzero}
    .fil9 {fill:#F48462;fill-rule:nonzero}
    .fil5 {fill:#F7B369;fill-rule:nonzero}
    .fil11 {fill:#FF9C85;fill-rule:nonzero}
    .fil6 {fill:white;fill-rule:nonzero}
   ]]>
  </style>
 </defs>
 <g id="Capa_x0020_1">
  <metadata id="CorelCorpID_0Corel-Layer"/>
  <path class="fil0" d="M279.67 388.3c-4.6,52.53 -30.25,93.2 -57.27,90.83 -27.03,-2.37 -45.19,-46.88 -40.59,-99.41 4.61,-52.53 30.25,-93.19 57.27,-90.82 27.02,2.37 45.19,46.87 40.58,99.41z"/>
  <path class="fil1" d="M1637.51 815.2c0,10.02 -334.59,18.14 -747.33,18.14 -412.74,0 -747.33,-8.13 -747.33,-18.14 0,-10.01 334.59,-18.14 747.33,-18.14 412.73,0 747.33,8.12 747.33,18.14z"/>
  <path class="fil2" d="M1245.02 670.36l-780.66 0c-33.6,0 -60.83,-27.24 -60.83,-60.83l0 -419.65c0,-33.59 27.23,-60.83 60.83,-60.83l780.66 0c33.59,0 60.83,27.24 60.83,60.83l0 419.65c0,33.6 -27.24,60.83 -60.83,60.83z"/>
  <path class="fil3" d="M1347.62 632.01l0 25.54c0,6.7 -0.87,13.23 -2.56,19.47 -8.57,31.6 -37.43,54.86 -71.76,54.86l-837.2 0c-34.33,0 -63.25,-23.26 -71.82,-54.86 -1.69,-6.24 -2.57,-12.77 -2.57,-19.47l0 -25.54c0,-41.04 33.29,-74.33 74.39,-74.33l837.2 0c41.04,0 74.33,33.29 74.33,74.33z"/>
  <path class="fil2" d="M1394.52 541.84c0,50.11 -40.62,90.72 -90.72,90.72 -50.11,0 -90.72,-40.62 -90.72,-90.72 0,-50.11 40.62,-90.72 90.72,-90.72 50.11,0 90.72,40.62 90.72,90.72z"/>
  <path class="fil3" d="M428.22 822.08l-3.81 0c-9.36,0 -17.28,-6.92 -18.53,-16.19l-13.29 -98.63 58.55 0 -4.25 96.95c-0.44,10 -8.67,17.87 -18.68,17.87z"/>
  <path class="fil3" d="M1281.5 822.08l3.81 0c9.36,0 17.27,-6.92 18.53,-16.19l13.29 -98.63 -58.55 0 4.25 96.95c0.44,10 8.67,17.87 18.68,17.87z"/>
  <path class="fil2" d="M487.55 547.82c0,50.11 -40.62,90.73 -90.72,90.73 -50.1,0 -90.72,-40.62 -90.72,-90.73 0,-50.1 40.62,-90.72 90.72,-90.72 50.1,0 90.72,40.62 90.72,90.72z"/>
  <path class="fil4" d="M1264.34 157.13l-239.4 0c-0.8,0 -1.46,-0.65 -1.46,-1.46 0,-0.8 0.65,-1.46 1.46,-1.46l239.4 0c0.8,0 1.46,0.65 1.46,1.46 0,0.8 -0.65,1.46 -1.46,1.46z"/>
  <path class="fil5" d="M690.96 310.99c0,0 55.97,-127.84 118.37,-145.79 62.41,-17.95 -4.76,160.33 -4.76,160.33l-113.61 -14.54z"/>
  <path class="fil5" d="M922.79 158.05c0,0 111.53,27.52 137.54,124.59 26.01,97.07 -120.11,143.49 -120.11,143.49l-17.43 -268.07z"/>
  <polygon class="fil6" points="978.69,552.59 975.34,594.74 1064.22,601.63 1064.22,559.49 "/>
  <path class="fil7" d="M930.26 406.52c0,0 112.75,-121.86 189.18,-99.03 108.3,32.35 -5.98,299.39 -5.98,299.39l-159.76 0 6.72 -48.44 -181.52 4.04 21.88 -188.15 129.48 32.2z"/>
  <polygon class="fil5" points="798.98,528.27 839.78,528.27 829.35,618.56 795.18,618.56 "/>
  <path class="fil8" d="M887.37 137.36c0,0 56.32,7.49 38.08,-65.37 -18.24,-72.87 -70.39,-31.51 -70.39,-31.51l32.31 96.88z"/>
  <path class="fil7" d="M713.83 419.02c0,0 -179.9,52.19 -191.61,128.8 -11.71,76.62 111.1,110.64 178.44,115.42 67.34,4.78 124.58,0 124.58,0l0 -272.07 -111.41 27.85z"/>
  <path class="fil5" d="M758.39 419.02c0,0 -0.83,-230.08 44.99,-251.77 57.45,-27.2 140.62,-14.67 155.79,13.01 17.33,31.62 -7.41,222.42 -7.41,222.42 0,0 -86.03,48.44 -193.37,16.34z"/>
  <path class="fil9" d="M898.19 117.95l3.23 39.16c0,0 -3.22,12.95 -25.98,16.71 -16.95,2.79 -26.17,-1.68 -26.17,-1.68l0.74 -20.03 0.75 -19.54 40.63 -12.52 6.81 -2.11z"/>
  <path class="fil8" d="M891.37 120.06c-0.01,1.08 -0.31,2.37 -0.83,3.88 -7.15,20.29 -30.76,26.48 -40.54,28.18l0.75 -19.54 40.63 -12.52z"/>
  <path class="fil9" d="M834.64 44.02c0,0 -16.5,50.8 -6.14,77.42 10.35,26.61 34.87,19.85 49.27,13.1 14.4,-6.76 20.43,-16.58 20.43,-16.58 0,0 14.4,3.36 22.44,-10.52 8.05,-13.87 0.85,-28.19 -7.44,-30.82 -8.29,-2.63 -17.19,4.05 -17.19,4.05l6.03 -14.88c0,0 -38.27,-68.88 -67.39,-21.76z"/>
  <path class="fil8" d="M727.8 239.44c0,0 -39.78,-82.66 -33.91,-83.76 5.86,-1.1 42.02,77.6 42.02,77.6l-8.11 6.15z"/>
  <path class="fil10" d="M1345.06 677.02c-8.57,31.6 -37.43,54.86 -71.76,54.86l-837.2 0c-34.33,0 -63.25,-23.26 -71.82,-54.86l980.78 0z"/>
  <path class="fil5" d="M839.78 528.27c0,0 77.09,-2.5 94.07,14.65 9.86,9.95 -17.37,103.91 -17.37,103.91 0,0 -6.93,108.41 -19.23,122.2 -12.59,14.11 -43.75,9.95 -48.46,1.17 -4.12,-7.7 -7.92,-18.84 -8.06,-33.86 -0.32,-33.25 -0.32,-33.25 -0.32,-33.25l-12.8 -85.22 12.17 -89.59z"/>
  <path class="fil5" d="M969.15 674.1c0.55,20.97 136.75,63.63 141.74,65.78 5,2.15 45.79,8.28 60.61,4.14 10.71,-3 10.27,-37.32 3.32,-48.64 -6.94,-11.34 -33.71,-21.16 -33.71,-21.16l-74.78 -67.34 -90.98 0c0,0 -6.55,54.17 -6.19,67.23z"/>
  <path class="fil6" d="M767.45 304.44c-0.73,0 -1.36,-0.54 -1.45,-1.29 -2.26,-19.12 12.55,-76.46 13.18,-78.89 0.2,-0.78 1,-1.24 1.78,-1.04 0.78,0.2 1.25,1 1.04,1.78 -0.15,0.59 -15.3,59.24 -13.11,77.82 0.1,0.8 -0.47,1.52 -1.27,1.62l-0.18 0.01z"/>
  <path class="fil9" d="M687.09 280.52c0,0 25.47,-53.56 40.05,-61.06 14.58,-7.5 52.36,-4.44 52.9,-0.03 0.54,4.42 -32.98,13.89 -32.98,13.89 0,0 23.23,31.26 24.43,38.76 1.21,7.5 -13.48,31.55 -17.02,34.2 -3.54,2.65 -14.56,-8.45 -14.56,-8.45 0,0 -9.03,14.02 -23.42,19.74 -14.4,5.71 -34.16,-14.79 -34.16,-14.79l4.76 -22.25z"/>
  <path class="fil8" d="M835.23 90.32c-0.92,-0.07 -1.52,-0.76 -1.46,-1.57l0.64 -8.47 -3.63 -1.2c-0.77,-0.26 -1.18,-1.08 -0.93,-1.84 0.25,-0.76 1.07,-1.19 1.84,-0.93l4.71 1.56c0.63,0.21 1.04,0.83 1,1.49l-0.72 9.6c-0.06,0.77 -0.7,1.35 -1.45,1.35z"/>
  <path class="fil11" d="M731.96 319.66c0,0 14.13,-15.2 14.21,-27.43 0.07,-12.22 -26.69,-10.53 -26.69,-10.53l-3.26 23.79 15.75 14.17z"/>
  <path class="fil8" d="M694.9 415.31l177.06 0c6.27,0 11.36,-5.09 11.36,-11.36l0 -119.81c0,-6.27 -5.09,-11.36 -11.36,-11.36l-177.06 0c-6.27,0 -11.36,5.08 -11.36,11.36l0 119.81c0,6.27 5.08,11.36 11.36,11.36z"/>
  <path class="fil12" d="M708.06 415.31l176.31 0c6.26,0 11.33,-5.08 11.33,-11.34l0 -119.85c0,-6.27 -5.08,-11.34 -11.33,-11.34l-176.31 0c-6.26,0 -11.33,5.07 -11.33,11.34l0 119.85c0,6.26 5.07,11.34 11.33,11.34z"/>
  <path class="fil6" d="M771.68 344.04c0,9.26 7.51,16.77 16.77,16.77 9.26,0 16.77,-7.51 16.77,-16.77 0,-9.26 -7.51,-16.77 -16.77,-16.77 -9.26,0 -16.77,7.51 -16.77,16.77z"/>
  <path class="fil8" d="M863.21 88.54c-0.84,-0.02 -1.48,-0.69 -1.46,-1.49l0.22 -7.64 -3.75 -1.73c-0.74,-0.33 -1.05,-1.2 -0.72,-1.93 0.34,-0.73 1.21,-1.05 1.94,-0.72l4.63 2.13c0.53,0.24 0.86,0.78 0.85,1.36l-0.24 8.59c-0.02,0.79 -0.67,1.42 -1.46,1.42z"/>
  <path class="fil9" d="M935.5 337.68c0,0 -35.15,-11.45 -39.79,-12.93 0,0 -0.5,12.66 1.04,14.89 1.55,2.23 -67.67,12.9 -67.5,19.59 0.18,6.69 6.61,8.17 6.61,8.17 0,0 -13.85,2.97 -10.14,9.65 3.71,6.69 10.14,6.96 10.14,6.96 0,0 -13.63,6.62 0,15.06 13.64,8.44 80.51,13.64 101.95,-7.75 15.76,-15.73 -2.31,-53.64 -2.31,-53.64z"/>
  <path class="fil8" d="M896.01 80.66c0,0 -23.29,-1.95 -34.44,-15.79 -10.2,-12.66 -14.79,-27.87 -14.79,-27.87 0,0 -4.72,4.26 -10.26,13.72 -4.34,7.42 -7.75,16.39 -7.75,16.39 0,0 -10.54,-31.81 17.97,-44.88 28.51,-13.08 54.76,4.71 63.48,22.47 8.72,17.76 -14.2,35.97 -14.2,35.97z"/>
  <path class="fil3" d="M437.1 547.82c0,22.25 -18.03,40.28 -40.27,40.28 -22.25,0 -40.27,-18.04 -40.27,-40.28 0,-22.24 18.03,-40.27 40.27,-40.27 22.24,0 40.27,18.03 40.27,40.27z"/>
  <path class="fil5" d="M914.68 317.16l1.77 88.9c0,0 33.31,5.4 79.24,-25.28 63.83,-42.64 67.75,-71.79 67.75,-71.79l-87.83 -20.22 -60.93 28.38z"/>
  <path class="fil8" d="M835.85 368.85c-0.73,0 -1.36,-0.55 -1.45,-1.29 -0.09,-0.8 0.48,-1.53 1.28,-1.62l39.57 -4.57c0.78,-0.08 1.52,0.48 1.61,1.28 0.09,0.8 -0.48,1.52 -1.28,1.62l-39.57 4.57 -0.18 0.01z"/>
  <path class="fil8" d="M875.43 385.47l-39.57 0c-0.8,0 -1.46,-0.65 -1.46,-1.46 0,-0.8 0.65,-1.46 1.46,-1.46l39.57 0c0.8,0 1.46,0.65 1.46,1.46 0,0.8 -0.65,1.46 -1.46,1.46z"/>
  <path class="fil6" d="M902.27 315.81c-0.53,0 -1.05,-0.3 -1.31,-0.8 -0.36,-0.72 -0.07,-1.6 0.65,-1.95 2.26,-1.14 55.72,-27.87 83.43,-29.85 0.72,-0.05 1.5,0.55 1.56,1.35 0.06,0.8 -0.55,1.5 -1.35,1.56 -27.13,1.94 -81.78,29.27 -82.33,29.54l-0.65 0.16z"/>
  <path class="fil6" d="M963.06 268.2c-8.34,0 -17.26,15.31 -21.98,25.45 12.78,-10.65 24.47,-22.37 23.58,-25.1 -0.03,-0.09 -0.4,-0.31 -1.35,-0.34l-0.25 -0.01zm-25.68 31.8l-0.87 -0.28c-0.53,-0.39 -0.73,-1.09 -0.49,-1.7 0.53,-1.35 12.95,-32.73 27.04,-32.73l0.35 0c2.71,0.11 3.67,1.34 4.01,2.35 2.14,6.53 -21.76,26.18 -29.14,32.05l-0.91 0.31z"/>
  <path class="fil0" d="M109.82 444.14c47.73,22.42 77.08,60.49 65.55,85.05 -11.53,24.55 -59.58,26.28 -107.31,3.86 -47.73,-22.42 -77.07,-60.5 -65.54,-85.05 11.54,-24.55 59.58,-26.28 107.31,-3.85z"/>
  <path class="fil0" d="M128.33 631.22c-38.66,-5.83 -67.57,-26.68 -64.57,-46.57 3,-19.88 36.77,-31.27 75.43,-25.44 38.66,5.83 67.57,26.68 64.57,46.57 -3,19.89 -36.77,31.28 -75.44,25.45z"/>
  <path class="fil0" d="M291.81 491.64c35.79,-38.73 80.95,-55.22 100.87,-36.81 19.92,18.41 7.07,64.73 -28.72,103.46 -35.78,38.74 -80.95,55.22 -100.87,36.81 -19.92,-18.4 -7.07,-64.73 28.72,-103.46z"/>
  <path class="fil0" d="M369.5 654.53c38.57,6.41 72.51,-4.47 75.81,-24.31 3.3,-19.84 -25.3,-41.12 -63.87,-47.53 -38.57,-6.41 -72.51,4.48 -75.81,24.32 -3.3,19.84 25.29,41.12 63.86,47.52z"/>
  <path class="fil13" d="M1614.92 503.29l-261.27 0c-14.4,0 -26.06,-11.67 -26.06,-26.06 0,-14.39 11.67,-26.06 26.06,-26.06l261.27 0c14.39,0 26.06,11.67 26.06,26.06 0,14.39 -11.67,26.06 -26.06,26.06z"/>
  <path class="fil13" d="M1387.55 822.08c-7.84,0 -14.2,-6.35 -14.2,-14.19l0 -313.05c0,-7.84 6.36,-14.19 14.2,-14.19 7.84,0 14.19,6.35 14.19,14.19l0 313.05c0,7.84 -6.35,14.19 -14.19,14.19z"/>
  <path class="fil13" d="M1583.81 822.08c-7.84,0 -14.19,-6.35 -14.19,-14.19l0 -313.05c0,-7.84 6.35,-14.19 14.19,-14.19 7.83,0 14.19,6.35 14.19,14.19l0 313.05c0,7.84 -6.35,14.19 -14.19,14.19z"/>
  <polygon class="fil5" points="1373.35,451.17 1439.31,451.17 1439.31,364.93 1373.35,364.93 "/>
  <path class="fil14" d="M1439.31 364.92c0,2.1 -14.77,3.8 -32.98,3.8 -18.22,0 -32.98,-1.7 -32.98,-3.8 0,-2.09 14.77,-3.79 32.98,-3.79 18.21,0 32.98,1.7 32.98,3.79z"/>
  <path class="fil5" d="M1439.31 386.61c-10.38,0 -18.82,11.68 -18.82,26.02 0,14.35 8.45,26.02 18.82,26.02 10.38,0 18.82,-11.67 18.82,-26.02 0,-14.35 -8.44,-26.02 -18.82,-26.02zm0 57.87c-13.59,0 -24.65,-14.28 -24.65,-31.85 0,-17.57 11.07,-31.85 24.65,-31.85 13.6,0 24.65,14.29 24.65,31.85 0,17.56 -11.06,31.85 -24.65,31.85z"/>
  <path class="fil2" d="M961.83 558.77l-2.83 -0.68c0.22,-0.92 22.12,-91.91 53,-137.24l2.41 1.64c-30.58,44.9 -52.36,135.37 -52.58,136.28z"/>
  <path class="fil2" d="M985.1 422.79c-0.74,0 -1.14,0.28 -1.4,0.54 -3.86,3.77 -0.09,22.93 3.79,36.69 2.51,-8.01 7.02,-25.02 3.12,-33.17 -0.93,-1.94 -2.27,-3.18 -4.07,-3.79 -0.59,-0.19 -1.05,-0.27 -1.44,-0.27zm2.18 46.61l-1.27 -4.1c-1.18,-3.79 -11.31,-37.25 -4.35,-44.06 1,-0.99 2.83,-1.95 5.81,-0.95 2.56,0.86 4.5,2.64 5.77,5.29 5.71,11.92 -4.05,38.66 -4.47,39.78l-1.49 4.03z"/>
  <path class="fil2" d="M824.67 519.29c-74.28,-21.69 -211.55,-8.85 -212.92,-8.72l-0.28 -2.9c1.39,-0.14 139.2,-13.03 214.02,8.82l-0.82 2.8z"/>
  <path class="fil2" d="M646.94 492.84c-2.16,0 -3.84,0.58 -4.81,1.95 -0.69,0.97 -0.46,1.46 -0.35,1.66 1.92,3.89 18.21,6.19 30.83,7 -8.42,-5.3 -19.17,-10.61 -25.67,-10.61zm35.77 13.96l-4.91 -0.17c-5.82,-0.2 -35.01,-1.56 -38.62,-8.88 -0.51,-1.03 -0.82,-2.68 0.59,-4.65 7.58,-10.62 35.73,8.65 38.92,10.88l4.03 2.82z"/>
  <path class="fil3" d="M1344.07 541.84c0,22.25 -18.03,40.28 -40.27,40.28 -22.25,0 -40.28,-18.03 -40.28,-40.28 0,-22.24 18.03,-40.28 40.28,-40.28 22.24,0 40.27,18.04 40.27,40.28z"/>
  <path class="fil6" d="M247.58 666.82c-0.62,0 -1.2,-0.4 -1.39,-1.03 -27.81,-89.96 -123.74,-76.4 -124.7,-76.25 -0.77,0.13 -1.53,-0.43 -1.66,-1.22 -0.12,-0.79 0.42,-1.53 1.22,-1.66 0.99,-0.16 99.38,-14.05 127.92,78.27 0.24,0.77 -0.19,1.58 -0.96,1.82l-0.43 0.06z"/>
  <path class="fil6" d="M243.17 654.65c-0.62,0 -1.19,-0.4 -1.39,-1.03 -33.63,-107.7 -133.8,-162.85 -134.8,-163.39 -0.71,-0.39 -0.97,-1.27 -0.59,-1.98 0.38,-0.71 1.28,-0.96 1.97,-0.59 1.02,0.55 102.21,56.23 136.2,165.08 0.24,0.77 -0.19,1.59 -0.96,1.83l-0.44 0.07z"/>
  <path class="fil6" d="M244.38 681.93l-1.28 -0.76c-52.07,-95.2 -18.04,-316.36 -17.69,-318.58 0.13,-0.8 0.89,-1.35 1.67,-1.21 0.79,0.13 1.34,0.87 1.21,1.67 -0.35,2.21 -34.23,222.4 17.36,316.73 0.39,0.7 0.13,1.6 -0.58,1.98l-0.7 0.18z"/>
  <path class="fil6" d="M229.92 662.5c-0.77,0 -1.42,-0.61 -1.45,-1.39 -0.04,-0.81 -2.41,-81.6 114.15,-162.97 0.66,-0.45 1.56,-0.3 2.03,0.36 0.46,0.66 0.3,1.57 -0.36,2.03 -115.12,80.36 -112.94,159.65 -112.9,160.44 0.04,0.8 -0.58,1.48 -1.39,1.52l-0.06 0.01z"/>
  <path class="fil6" d="M241.33 662.5l-0.54 -0.11c-0.75,-0.29 -1.11,-1.14 -0.82,-1.89 11.41,-28.76 28.7,-47.28 51.4,-55.07 40.38,-13.85 84.39,11.65 84.84,11.92 0.69,0.41 0.92,1.3 0.51,2 -0.41,0.69 -1.3,0.92 -1.99,0.51 -0.42,-0.25 -43.33,-25.09 -82.42,-11.67 -21.85,7.5 -38.54,25.46 -49.62,53.38 -0.23,0.57 -0.77,0.92 -1.36,0.92z"/>
  <path class="fil15" d="M166.69 819.07l108.72 0c5.9,0 10.83,-4.2 11.41,-9.7l16.63 -158.39c0.67,-6.33 -4.63,-11.82 -11.41,-11.82l-141.98 0c-6.78,0 -12.07,5.49 -11.41,11.82l16.63 158.39c0.58,5.5 5.51,9.7 11.41,9.7z"/>
  <path class="fil13" d="M190.76 819.07l108.72 0c5.89,0 10.83,-4.2 11.41,-9.7l16.63 -158.39c0.67,-6.33 -4.63,-11.82 -11.4,-11.82l-141.99 0c-6.77,0 -12.07,5.49 -11.41,11.82l16.63 158.39c0.58,5.5 5.51,9.7 11.41,9.7z"/>
  <path class="fil8" d="M902.23 46.87c0,0 -6.72,-42.4 29.47,-46.69 36.18,-4.28 31.64,67.39 -14.93,66.48 -46.58,-0.92 -14.54,-19.79 -14.54,-19.79z"/>
  <path class="fil6" d="M923.77 67.38c-0.67,0 -1.27,-0.47 -1.42,-1.15 -4.29,-19.69 -14.34,-26.81 -14.44,-26.88 -0.66,-0.46 -0.83,-1.36 -0.38,-2.03 0.45,-0.66 1.35,-0.83 2.02,-0.38 0.45,0.31 11.09,7.75 15.65,28.66 0.17,0.79 -0.33,1.56 -1.11,1.74l-0.31 0.03z"/>
  <path class="fil8" d="M867.27 68.49l-13.09 -1.92c-0.8,-0.12 -1.35,-0.86 -1.23,-1.66 0.12,-0.79 0.89,-1.35 1.66,-1.22l12.87 1.91c0.8,0.12 1.35,0.86 1.23,1.65 -0.11,0.72 -0.73,1.25 -1.44,1.25z"/>
  <path class="fil8" d="M828.75 68.57c-0.68,0 -1.28,-0.48 -1.42,-1.17 -0.16,-0.79 0.35,-1.56 1.14,-1.72l8.61 -1.73c0.77,-0.16 1.56,0.36 1.72,1.14 0.16,0.79 -0.36,1.56 -1.14,1.72l-8.62 1.73 -0.29 0.03z"/>
  <path class="fil8" d="M846.57 105.35l-0.98 -0.39c-7.18,-6.62 -0.88,-21.2 -0.61,-21.81 0.33,-0.74 1.19,-1.07 1.92,-0.75 0.73,0.33 1.07,1.18 0.75,1.92 -0.06,0.13 -5.73,13.29 -0.08,18.5 0.59,0.55 0.62,1.47 0.08,2.06l-1.07 0.47z"/>
  <path class="fil8" d="M858.31 116.32c-0.62,0 -1.2,-0.4 -1.39,-1.03 -0.23,-0.77 0.2,-1.58 0.96,-1.82 0.24,-0.08 5.82,-1.88 6.97,-8.33 0.14,-0.79 0.9,-1.3 1.69,-1.18 0.79,0.14 1.32,0.9 1.18,1.69 -1.46,8.25 -8.68,10.52 -8.99,10.6l-0.42 0.06z"/>
  <path class="fil8" d="M899.68 100.91l-1.05 -0.44c-0.56,-0.58 -0.54,-1.5 0.03,-2.06l14.93 -14.43c0.59,-0.55 1.51,-0.54 2.06,0.03 0.56,0.58 0.54,1.5 -0.03,2.06l-14.94 14.43 -1.01 0.41z"/>
  <path class="fil8" d="M914.78 97.21l-10.07 -1.37c-0.79,-0.11 -1.35,-0.85 -1.24,-1.64 0.11,-0.79 0.87,-1.34 1.64,-1.24l9.86 1.36c0.8,0.1 1.35,0.84 1.24,1.64 -0.1,0.73 -0.72,1.26 -1.44,1.26z"/>
  <path class="fil6" d="M868.64 176.03c-14.65,0 -26.83,-4.86 -27.04,-4.95 -0.75,-0.3 -1.1,-1.16 -0.8,-1.9 0.31,-0.74 1.18,-1.1 1.91,-0.79 0.37,0.15 37.26,14.87 58.5,-8.23 0.55,-0.58 1.46,-0.62 2.06,-0.08 0.59,0.54 0.63,1.47 0.09,2.06 -9.99,10.86 -23.12,13.9 -34.7,13.9z"/>
  <path class="fil8" d="M727.81 240.9l-1.07 -0.47c-0.54,-0.59 -0.51,-1.51 0.08,-2.06 5.08,-4.73 19.47,-6.43 20.08,-6.5 0.74,-0.08 1.52,0.48 1.61,1.28 0.09,0.8 -0.48,1.52 -1.28,1.62 -3.89,0.45 -14.79,2.35 -18.43,5.74l-0.99 0.39z"/>
 </g>
</svg>
